<svg width="119" height="153" viewBox="0 0 119 153" fill="none" xmlns="http://www.w3.org/2000/svg">
<path d="M88.5 33.6666H13.5C12.3949 33.6666 11.3351 34.1056 10.5537 34.887C9.77231 35.6684 9.33333 36.7282 9.33333 37.8333C9.33351 45.1472 11.2589 52.3321 14.9159 58.666C18.5729 65 23.8327 70.2597 30.1667 73.9166V79.5C30.1667 80.6051 30.6056 81.6649 31.3871 82.4463C32.1685 83.2277 33.2283 83.6667 34.3333 83.6667H67.6667C68.7717 83.6667 69.8315 83.2277 70.6129 82.4463C71.3943 81.6649 71.8333 80.6051 71.8333 79.5V73.9166C78.1673 70.2597 83.4271 65 87.0841 58.666C90.7411 52.3321 92.6665 45.1472 92.6667 37.8333C92.6667 36.7282 92.2277 35.6684 91.4463 34.887C90.6649 34.1056 89.6051 33.6666 88.5 33.6666ZM38.5 29.5V25.0416C38.5026 20.1384 36.5887 15.4283 33.1667 11.9166C32.2006 10.9405 31.438 9.78226 30.923 8.50912C30.408 7.23597 30.1509 5.87325 30.1667 4.49998V0.333313H21.8333V4.49998C21.8089 9.43206 23.7244 14.176 27.1667 17.7083C29.0974 19.6596 30.1762 22.2966 30.1667 25.0416V29.5H38.5ZM55.1667 29.5V25.0416C55.1693 20.1384 53.2554 15.4283 49.8333 11.9166C48.8673 10.9405 48.1047 9.78226 47.5897 8.50912C47.0747 7.23597 46.8176 5.87325 46.8333 4.49998V0.333313H38.5V4.49998C38.4974 9.40324 40.4113 14.1133 43.8333 17.625C44.7994 18.6011 45.562 19.7594 46.077 21.0325C46.592 22.3057 46.849 23.6684 46.8333 25.0416V29.5H55.1667ZM71.8333 29.5V25.0416C71.836 20.1384 69.922 15.4283 66.5 11.9166C65.534 10.9405 64.7713 9.78226 64.2564 8.50912C63.7414 7.23597 63.4843 5.87325 63.5 4.49998V0.333313H55.1667V4.49998C55.164 9.40324 57.078 14.1133 60.5 17.625C61.466 18.6011 62.2287 19.7594 62.7436 21.0325C63.2586 22.3057 63.5157 23.6684 63.5 25.0416V29.5H71.8333Z" fill="white"/>
<path d="M7.42188 115.25C7.42188 115.868 7.5651 116.425 7.85156 116.92C8.13802 117.408 8.52214 117.818 9.00391 118.15C9.48568 118.482 10.0391 118.788 10.6641 119.068C11.2891 119.348 11.9466 119.615 12.6367 119.869C13.3268 120.117 14.0169 120.377 14.707 120.65C15.3971 120.917 16.0547 121.24 16.6797 121.617C17.3047 121.988 17.8581 122.408 18.3398 122.877C18.8216 123.339 19.2057 123.922 19.4922 124.625C19.7786 125.322 19.9219 126.103 19.9219 126.969C19.9219 128.03 19.6875 129.02 19.2188 129.938C18.75 130.855 18.1055 131.643 17.2852 132.301C16.4714 132.952 15.4818 133.463 14.3164 133.834C13.151 134.205 11.8945 134.391 10.5469 134.391C10.026 134.391 9.47591 134.355 8.89648 134.283C8.32357 134.218 7.71484 134.104 7.07031 133.941C6.43229 133.779 5.81706 133.58 5.22461 133.346C4.63216 133.111 4.0625 132.815 3.51562 132.457C2.97526 132.092 2.50326 131.689 2.09961 131.246C1.69596 130.803 1.3737 130.283 1.13281 129.684C0.898438 129.078 0.78125 128.434 0.78125 127.75C0.78125 126.884 1.08398 126.148 1.68945 125.543C2.30143 124.931 3.04036 124.625 3.90625 124.625C4.77214 124.625 5.50781 124.931 6.11328 125.543C6.72526 126.148 7.03125 126.884 7.03125 127.75C7.03125 128.31 6.89453 128.827 6.62109 129.303C6.35417 129.771 5.98958 130.146 5.52734 130.426C6.50391 130.986 7.78646 131.266 9.375 131.266C10.7878 131.266 11.8555 131.048 12.5781 130.611C13.3073 130.175 13.6719 129.482 13.6719 128.531C13.6719 127.913 13.5286 127.359 13.2422 126.871C12.9557 126.376 12.5716 125.963 12.0898 125.631C11.6081 125.299 11.0547 124.993 10.4297 124.713C9.80469 124.433 9.14714 124.169 8.45703 123.922C7.76693 123.668 7.07682 123.408 6.38672 123.141C5.69661 122.867 5.03906 122.545 4.41406 122.174C3.78906 121.796 3.23568 121.376 2.75391 120.914C2.27214 120.445 1.88802 119.863 1.60156 119.166C1.3151 118.463 1.17188 117.678 1.17188 116.812C1.17188 115.745 1.38346 114.755 1.80664 113.844C2.23633 112.926 2.83529 112.141 3.60352 111.49C4.37826 110.833 5.32878 110.318 6.45508 109.947C7.58138 109.576 8.8151 109.391 10.1562 109.391C10.6771 109.391 11.2174 109.426 11.7773 109.498C12.3438 109.563 12.9329 109.677 13.5449 109.84C14.1634 110.003 14.7559 110.201 15.3223 110.436C15.8887 110.67 16.429 110.969 16.9434 111.334C17.4642 111.692 17.9134 112.092 18.291 112.535C18.6686 112.978 18.9681 113.499 19.1895 114.098C19.4173 114.697 19.5312 115.341 19.5312 116.031C19.5312 116.897 19.2253 117.636 18.6133 118.248C18.0078 118.854 17.2721 119.156 16.4062 119.156C15.5404 119.156 14.8014 118.854 14.1895 118.248C13.584 117.636 13.2812 116.897 13.2812 116.031C13.2812 115.452 13.4277 114.921 13.7207 114.439C14.0137 113.951 14.401 113.57 14.8828 113.297C14.0169 112.776 12.832 112.516 11.3281 112.516C9.95443 112.516 8.95833 112.73 8.33984 113.16C7.72786 113.583 7.42188 114.28 7.42188 115.25ZM42.3281 109.781H52.4844V112.906H49.3594V125.797C49.3594 126.682 49.265 127.532 49.0762 128.346C48.8874 129.16 48.5781 129.938 48.1484 130.68C47.7253 131.415 47.2012 132.057 46.5762 132.604C45.9577 133.15 45.1829 133.587 44.252 133.912C43.321 134.231 42.2891 134.391 41.1562 134.391C38.6953 134.391 36.6836 134.042 35.1211 133.346C33.5586 132.643 32.416 131.607 31.6934 130.24C30.9707 128.867 30.6094 127.125 30.6094 125.016V112.906H27.4844V109.781H39.9844V112.906H36.8594V125.016C36.8594 125.725 36.9115 126.38 37.0156 126.979C37.1263 127.577 37.2695 128.089 37.4453 128.512C37.6211 128.928 37.8359 129.303 38.0898 129.635C38.3438 129.96 38.6074 130.224 38.8809 130.426C39.1543 130.628 39.4473 130.794 39.7598 130.924C40.0788 131.054 40.3815 131.145 40.668 131.197C40.9544 131.243 41.2474 131.266 41.5469 131.266C42.3086 131.266 42.9889 131.129 43.5879 130.855C44.1934 130.576 44.6849 130.191 45.0625 129.703C45.4466 129.208 45.7363 128.632 45.9316 127.975C46.1335 127.311 46.2344 126.585 46.2344 125.797V112.906H42.3281V109.781ZM60.8281 134V130.875H63.9531V112.906H60.8281V109.781H70.9844C73.3477 109.781 75.1999 109.856 76.541 110.006C77.8887 110.156 78.9368 110.39 79.6855 110.709C80.4408 111.021 81.1341 111.493 81.7656 112.125C82.332 112.691 82.7585 113.404 83.0449 114.264C83.3379 115.117 83.4844 116.031 83.4844 117.008C83.4844 117.802 83.3802 118.538 83.1719 119.215C82.9701 119.885 82.6803 120.481 82.3027 121.002C81.9316 121.516 81.4727 121.979 80.9258 122.389C80.3854 122.792 79.7865 123.134 79.1289 123.414C78.4714 123.694 77.7422 123.925 76.9414 124.107C76.1471 124.29 75.3236 124.423 74.4707 124.508C73.6243 124.586 72.7227 124.625 71.7656 124.625H70.2031V130.875H74.1094V134H60.8281ZM70.2031 121.5H71.7656C74.8906 121.5 76.4531 120.068 76.4531 117.203C76.4531 116.708 76.4173 116.259 76.3457 115.855C76.2806 115.452 76.1569 115.061 75.9746 114.684C75.7923 114.306 75.5579 113.99 75.2715 113.736C74.985 113.482 74.6107 113.281 74.1484 113.131C73.6862 112.981 73.1523 112.906 72.5469 112.906H70.2031V121.5ZM97.2969 109.781H101.594L110.939 130.875H113.312V134H100.812V130.875H103.938L102.551 127.75H93.7227L92.4238 130.875H98.4688V134H85.9688V130.875H88.5176L97.2969 109.781ZM95.0215 124.625H101.164L98.7422 119.156C98.4297 118.44 98.1823 117.737 98 117.047C97.7461 117.945 97.5117 118.648 97.2969 119.156L95.0215 124.625Z" fill="white"/>
</svg>
