<svg width="151" height="55" viewBox="0 0 151 55" fill="none" xmlns="http://www.w3.org/2000/svg">
<path d="M21 10H3C2.73478 10 2.48043 10.1054 2.29289 10.2929C2.10536 10.4804 2 10.7348 2 11C2.00004 12.7553 2.46213 14.4797 3.33981 15.9999C4.21749 17.52 5.47985 18.7823 7 19.66V21C7 21.2652 7.10536 21.5196 7.29289 21.7071C7.48043 21.8946 7.73478 22 8 22H16C16.2652 22 16.5196 21.8946 16.7071 21.7071C16.8946 21.5196 17 21.2652 17 21V19.66C18.5202 18.7823 19.7825 17.52 20.6602 15.9999C21.5379 14.4797 22 12.7553 22 11C22 10.7348 21.8946 10.4804 21.7071 10.2929C21.5196 10.1054 21.2652 10 21 10ZM9 9V7.93C9.00063 6.75322 8.54129 5.6228 7.72 4.78C7.48815 4.54572 7.30512 4.26775 7.18152 3.96219C7.05793 3.65664 6.99623 3.32958 7 3V2H5V3C4.99413 4.1837 5.45386 5.32226 6.28 6.17C6.74339 6.63831 7.00229 7.27118 7 7.93V9H9ZM13 9V7.93C13.0006 6.75322 12.5413 5.6228 11.72 4.78C11.4882 4.54572 11.3051 4.26775 11.1815 3.96219C11.0579 3.65664 10.9962 3.32958 11 3V2H9V3C8.99937 4.17678 9.45871 5.30721 10.28 6.15C10.5118 6.38428 10.6949 6.66225 10.8185 6.96781C10.9421 7.27336 11.0038 7.60042 11 7.93V9H13ZM17 9V7.93C17.0006 6.75322 16.5413 5.6228 15.72 4.78C15.4882 4.54572 15.3051 4.26775 15.1815 3.96219C15.0579 3.65664 14.9962 3.32958 15 3V2H13V3C12.9994 4.17678 13.4587 5.30721 14.28 6.15C14.5118 6.38428 14.6949 6.66225 14.8185 6.96781C14.9421 7.27336 15.0038 7.60042 15 7.93V9H17Z" fill="#307A59"/>
<path d="M42.1172 19.1133C42.1172 19.9596 41.9089 20.6888 41.4922 21.3008C41.082 21.9128 40.4896 22.3815 39.7148 22.707C38.9466 23.0326 38.0286 23.1953 36.9609 23.1953C36.4401 23.1953 35.9421 23.166 35.4668 23.1074C34.9915 23.0488 34.5423 22.9642 34.1191 22.8535C33.7025 22.7363 33.3216 22.5964 32.9766 22.4336V20.2266C33.556 20.4805 34.2038 20.7116 34.9199 20.9199C35.6361 21.1217 36.3652 21.2227 37.1074 21.2227C37.7129 21.2227 38.2142 21.1445 38.6113 20.9883C39.015 20.8255 39.3145 20.5977 39.5098 20.3047C39.7051 20.0052 39.8027 19.6569 39.8027 19.2598C39.8027 18.8366 39.6888 18.4785 39.4609 18.1855C39.2331 17.8926 38.888 17.6257 38.4258 17.3848C37.9701 17.1374 37.3971 16.8737 36.707 16.5938C36.2383 16.4049 35.7891 16.1901 35.3594 15.9492C34.9362 15.7083 34.5586 15.4251 34.2266 15.0996C33.8945 14.7741 33.6309 14.39 33.4355 13.9473C33.2467 13.498 33.1523 12.9707 33.1523 12.3652C33.1523 11.5579 33.3444 10.8678 33.7285 10.2949C34.1191 9.72201 34.666 9.28255 35.3691 8.97656C36.0788 8.67057 36.9056 8.51758 37.8496 8.51758C38.5983 8.51758 39.3014 8.5957 39.959 8.75195C40.623 8.9082 41.2741 9.12956 41.9121 9.41602L41.1699 11.3008C40.584 11.0599 40.0143 10.8678 39.4609 10.7246C38.9141 10.5814 38.3542 10.5098 37.7812 10.5098C37.2865 10.5098 36.8665 10.5846 36.5215 10.7344C36.1764 10.8841 35.9128 11.0957 35.7305 11.3691C35.5547 11.6361 35.4668 11.9551 35.4668 12.3262C35.4668 12.7428 35.5677 13.0944 35.7695 13.3809C35.9779 13.6608 36.2969 13.918 36.7266 14.1523C37.1628 14.3867 37.7227 14.6471 38.4062 14.9336C39.194 15.2591 39.8613 15.6009 40.4082 15.959C40.9616 16.3171 41.3848 16.7467 41.6777 17.248C41.9707 17.7428 42.1172 18.3646 42.1172 19.1133ZM56.082 8.72266V17.9609C56.082 18.957 55.8704 19.849 55.4473 20.6367C55.0306 21.4245 54.3991 22.0495 53.5527 22.5117C52.7064 22.9674 51.6419 23.1953 50.3594 23.1953C48.5299 23.1953 47.1367 22.7168 46.1797 21.7598C45.2292 20.7962 44.7539 19.5169 44.7539 17.9219V8.72266H47.0977V17.7168C47.0977 18.9082 47.3776 19.7871 47.9375 20.3535C48.4974 20.9199 49.334 21.2031 50.4473 21.2031C51.2155 21.2031 51.8405 21.0697 52.3223 20.8027C52.8105 20.5293 53.1686 20.1322 53.3965 19.6113C53.6309 19.084 53.748 18.4492 53.748 17.707V8.72266H56.082ZM63.8848 8.72266C65.7272 8.72266 67.0716 9.10026 67.918 9.85547C68.7643 10.6107 69.1875 11.6686 69.1875 13.0293C69.1875 13.6478 69.0898 14.237 68.8945 14.7969C68.7057 15.3503 68.3932 15.8418 67.957 16.2715C67.5208 16.6947 66.9447 17.0299 66.2285 17.2773C65.5189 17.5247 64.6432 17.6484 63.6016 17.6484H62.0781V23H59.7344V8.72266H63.8848ZM63.7285 10.666H62.0781V15.6953H63.3574C64.0931 15.6953 64.7181 15.6107 65.2324 15.4414C65.7467 15.2656 66.1374 14.9889 66.4043 14.6113C66.6712 14.2337 66.8047 13.7357 66.8047 13.1172C66.8047 12.2904 66.554 11.6751 66.0527 11.2715C65.5579 10.8678 64.7832 10.666 63.7285 10.666ZM80.8867 23L79.4902 19.0352H74.0312L72.6348 23H70.1641L75.4766 8.66406H78.0742L83.377 23H80.8867ZM78.8848 17.0234L77.5273 13.1172C77.4753 12.9479 77.4004 12.7103 77.3027 12.4043C77.2051 12.0918 77.1074 11.776 77.0098 11.457C76.9121 11.1315 76.8307 10.8581 76.7656 10.6367C76.7005 10.9036 76.6191 11.2031 76.5215 11.5352C76.4303 11.8607 76.3392 12.1667 76.248 12.4531C76.1634 12.7396 76.0983 12.9609 76.0527 13.1172L74.6855 17.0234H78.8848Z" fill="black"/>
</svg>
